<svg xmlns="http://www.w3.org/2000/svg" viewBox="0 0 640 360"><defs>
<linearGradient id="g" x1="0" y1="0" x2="1" y2="1"><stop stop-color="#173b32"/><stop offset=".58" stop-color="#285448"/><stop offset="1" stop-color="#c9a85e"/></linearGradient>
<linearGradient id="sun" x1="0" y1="0" x2="0" y2="1"><stop stop-color="#f7d98b"/><stop offset="1" stop-color="#c9a85e"/></linearGradient>
<filter id="shadow"><feDropShadow dx="0" dy="8" stdDeviation="8" flood-opacity=".18"/></filter>
</defs><rect width="640" height="360" fill="#f1eadc"/><rect y="285" width="640" height="75" fill="#d7c6a3"/><g filter="url(#shadow)"><path d="M70 285V155l100-78 100 78v130Z" fill="#fffdf8"/><path d="M45 160L170 62l125 98-20 25-105-82-105 82Z" fill="#173b32"/><rect x="145" y="215" width="48" height="70" fill="#c9a85e"/></g><g stroke="#173b32" stroke-width="7" fill="none"><path d="M330 280L380 235 425 250 480 175 550 125"/><path d="M535 125h15v15"/></g><g fill="#c9a85e"><rect x="345" y="260" width="24" height="25"/><rect x="405" y="235" width="24" height="50"/><rect x="465" y="205" width="24" height="80"/><rect x="525" y="165" width="24" height="120"/></g><circle cx="550" cy="80" r="28" fill="#173b32"/><path d="M537 80h26M550 67v26" stroke="#c9a85e" stroke-width="5"/></svg>